# xmcd
#
# Track frame offsets:
#	150
#	20752
#	45910
#	64607
#	86247
#	112465
#	140777
#	166215
#	196227
#	218805
#
# Disc length: 3155 seconds
#
# Revision: 0
# Processed by: cddbd v1.5.2PL0 Copyright (c) Steve Scherf et al.
# Submitted via: EasyCDDAExtractor 16.0.9.1
#
DISCID=930c510a
DTITLE=Various Artist - VFCCD: Du Ca Tình Yêu 2 - Du Ca Đồng Quê
DYEAR=2000
DGENRE=Country
TTITLE0=Trung Kiên - Phiên Chợ Xa - Scarborough Fair (Nhạc: Ngoại Quốc, Lời Vi
TTITLE0=ệt: Trần Tiến)
TTITLE1=Tam Ca Áo Trắng - Donna Donna (Nhạc: Ngoại Quốc, Lời Việt: Trần Tiến)
TTITLE2=I Zac - Con Yêu - Anak (Nhạc: Ngoại Quốc, Lời Việt: Cẩm Vân)
TTITLE3=Trần Thu Hà - Với Anh (Nhạc: Ngoại Quốc, Lời Việt: Trần Tiến)
TTITLE4=Trần Thu Hà - Tôi Tin Anh (Nhạc: Ngoại Quốc, Lời Việt: Trần Tiến)
TTITLE5=Phương Thảo and Ngọc Lễ - Kỳ Nghỉ Hè - Holiday (Nhạc: Ngoại Quốc, Lời Vi
TTITLE5=ệt: Ngọc Lễ)
TTITLE6=Trọng Tấn - Về Quê (Phó Đức Phương)
TTITLE7=Tam Ca Thế Hệ Mới - Tiếng Trống Baranưng (Trần Tiến)
TTITLE8=Trần Tiến - Bên Đời Hiu Quạnh (Trịnh Công Sơn)
TTITLE9=Trần Thu Hà - Sắc Màu (Trần Tiến)
EXTD=
EXTT0=
EXTT1=
EXTT2=
EXTT3=
EXTT4=
EXTT5=
EXTT6=
EXTT7=
EXTT8=
EXTT9=
PLAYORDER=
